<?xml version="1.0" encoding="UTF-8"?>
<svg version="1.1" xmlns="http://www.w3.org/2000/svg" width="910" height="891">
<path d="M0 0 C17.53272185 -0.04670515 35.06542431 -0.08198155 52.59819412 -0.10362434 C60.73882374 -0.11394023 68.87941471 -0.12800652 77.02001953 -0.15087891 C84.11474564 -0.17080323 91.20944377 -0.18371417 98.30419707 -0.18817699 C102.06137667 -0.190786 105.81847622 -0.19692476 109.57563019 -0.21146011 C113.76822981 -0.22754876 117.96068994 -0.2279803 122.15332031 -0.22705078 C123.40128891 -0.23424133 124.64925751 -0.24143188 125.93504333 -0.24884033 C127.07645279 -0.246091 128.21786224 -0.24334167 129.39385986 -0.24050903 C130.38570911 -0.24235262 131.37755836 -0.24419621 132.39946365 -0.24609566 C135.07274969 0.0068845 136.71212546 0.63393462 139 2 C139 2.66 139 3.32 139 4 C140.98 4 142.96 4 145 4 C145 4.66 145 5.32 145 6 C146.918125 6.185625 146.918125 6.185625 148.875 6.375 C162.29585274 7.88034051 162.29585274 7.88034051 168 11 C168 11.66 168 12.32 168 13 C170.97 13 173.94 13 177 13 C177 13.66 177 14.32 177 15 C180.04368775 15.51487532 183.08688684 16.01286012 186.140625 16.46484375 C187.16671875 16.62082031 188.1928125 16.77679688 189.25 16.9375 C190.28640625 17.09089844 191.3228125 17.24429688 192.390625 17.40234375 C195.44461042 18.10183442 196.41438341 19.06990306 198.0625 21.6875 C199.30068035 24.7416782 199.62375344 27.73919646 200 31 C200.33 31 200.66 31 201 31 C201.33 33.64 201.66 36.28 202 39 C202.33 39 202.66 39 203 39 C205.74356844 47.48953253 206.43563297 55.53721232 206.70874023 64.40722656 C206.73524658 65.24608398 206.76175293 66.08494141 206.7890625 66.94921875 C206.81540771 68.08363403 206.81540771 68.08363403 206.84228516 69.2409668 C206.81291299 71.02662491 206.81291299 71.02662491 208 72 C208.12185143 73.34983748 208.17766831 74.70574701 208.20532227 76.06079102 C208.22526749 76.92160782 208.24521271 77.78242462 208.26576233 78.66932678 C208.29083107 80.07244362 208.29083107 80.07244362 208.31640625 81.50390625 C208.33718735 82.45692123 208.35796844 83.40993622 208.37937927 84.39183044 C208.44498177 87.4486441 208.50380918 90.50554656 208.5625 93.5625 C208.60567506 95.62956663 208.64928901 97.69662414 208.69335938 99.76367188 C208.80067401 104.84235595 208.90191091 109.9211297 209 115 C209.33 115 209.66 115 210 115 C210.33 123.91 210.66 132.82 211 142 C211.33 142 211.66 142 212 142 C212 149.92 212 157.84 212 166 C211.67 166 211.34 166 211 166 C210.67 169.63 210.34 173.26 210 177 C209.67 177 209.34 177 209 177 C208.98018066 177.59538574 208.96036133 178.19077148 208.93994141 178.80419922 C208.84483874 181.49492153 208.73510158 184.18485148 208.625 186.875 C208.5940625 187.81214844 208.563125 188.74929688 208.53125 189.71484375 C208.49257813 190.61074219 208.45390625 191.50664062 208.4140625 192.4296875 C208.3826416 193.25710449 208.3512207 194.08452148 208.31884766 194.93701172 C208 197 208 197 206 199 C204.12402344 199.24291992 204.12402344 199.24291992 201.859375 199.23046875 C200.62380859 199.22756836 200.62380859 199.22756836 199.36328125 199.22460938 C198.06970703 199.20624023 198.06970703 199.20624023 196.75 199.1875 C195.90308594 199.18685547 195.05617188 199.18621094 194.18359375 199.18554688 C190.77429624 199.16168709 187.56389261 199.10085242 184.19882202 198.49900818 C181.20969238 198.03271148 178.44574893 197.87317856 175.42529297 197.87060547 C174.35753632 197.86745331 173.28977966 197.86430115 172.18966675 197.86105347 C171.0519986 197.8630777 169.91433044 197.86510193 168.7421875 197.8671875 C167.56157745 197.86623077 166.38096741 197.86527405 165.1645813 197.86428833 C162.67498725 197.86360922 160.18539141 197.86544472 157.69580078 197.86962891 C153.88179565 197.87499045 150.06790777 197.86966986 146.25390625 197.86328125 C143.83333307 197.86394189 141.41275997 197.86522277 138.9921875 197.8671875 C137.85047089 197.86516327 136.70875427 197.86313904 135.53244019 197.86105347 C133.94026169 197.86578171 133.94026169 197.86578171 132.31591797 197.87060547 C130.91743118 197.87179886 130.91743118 197.87179886 129.49069214 197.87301636 C127.16646424 197.99151311 125.24162039 198.42254658 123 199 C121.56538424 199.08312165 120.12744495 199.11785375 118.69042969 199.11352539 C117.84986023 199.11344986 117.00929077 199.11337433 116.14324951 199.11329651 C114.79616913 199.10555458 114.79616913 199.10555458 113.421875 199.09765625 C112.4953009 199.0962413 111.56872681 199.09482635 110.61407471 199.09336853 C107.65935008 199.08777824 104.70470167 199.0752275 101.75 199.0625 C99.74479276 199.05748375 97.73958433 199.05292106 95.734375 199.04882812 C90.82288737 199.03781199 85.9114566 199.020554 81 199 C80.98018066 197.72882324 80.96036133 196.45764648 80.93994141 195.14794922 C80.86369114 190.41777217 80.77500371 185.68789495 80.68261719 180.95800781 C80.64440761 178.91347181 80.6095409 176.86887043 80.578125 174.82421875 C80.53230013 171.87997114 80.4743344 168.93617052 80.4140625 165.9921875 C80.39673569 164.6277803 80.39673569 164.6277803 80.37905884 163.23580933 C80.26778665 158.41726689 79.75999433 154.54810416 78 150 C77.8046875 147.2265625 77.8046875 147.2265625 77.875 144.625 C77.89304687 143.75101563 77.91109375 142.87703125 77.9296875 141.9765625 C77.95289063 141.32429687 77.97609375 140.67203125 78 140 C77.34 140 76.68 140 76 140 C75.67 136.7 75.34 133.4 75 130 C74.67 130 74.34 130 74 130 C74.33 127.69 74.66 125.38 75 123 C44.64 123 14.28 123 -17 123 C-17.33 124.65 -17.66 126.3 -18 128 C-18.91157699 130.70639177 -19.96214971 133.33768839 -21 136 C-21.66 136 -22.32 136 -23 136 C-23.19848579 137.83217651 -23.38317092 139.6658494 -23.5625 141.5 C-23.66691406 142.5209375 -23.77132812 143.541875 -23.87890625 144.59375 C-23.99065688 147.73718715 -23.71420293 150.61750061 -23.27368164 153.72460938 C-22.72388933 158.29558557 -22.62152454 162.90240321 -22.4375 167.5 C-22.39431641 168.51320313 -22.35113281 169.52640625 -22.30664062 170.5703125 C-22.20150808 173.0467679 -22.09936163 175.52330749 -22 178 C-21.67 178 -21.34 178 -21 178 C-20.67 183.61 -20.34 189.22 -20 195 C-19.67 195 -19.34 195 -19 195 C-18.93941406 196.28777344 -18.87882813 197.57554687 -18.81640625 198.90234375 C-18.73201753 200.58074159 -18.6473687 202.25912636 -18.5625 203.9375 C-18.52318359 204.78763672 -18.48386719 205.63777344 -18.44335938 206.51367188 C-18.40146484 207.32255859 -18.35957031 208.13144531 -18.31640625 208.96484375 C-18.27974854 209.7137085 -18.24309082 210.46257324 -18.20532227 211.23413086 C-18.18228937 213.02461326 -18.18228937 213.02461326 -17 214 C-16.91348389 215.41570123 -16.89295096 216.835595 -16.90234375 218.25390625 C-16.90484131 219.0229126 -16.90733887 219.79191895 -16.90991211 220.58422852 C-16.91901611 221.56705811 -16.92812012 222.5498877 -16.9375 223.5625 C-16.958125 226.676875 -16.97875 229.79125 -17 233 C-7.1 233 2.8 233 13 233 C13 233.66 13 234.32 13 235 C13.59213287 234.99555878 14.18426575 234.99111755 14.79434204 234.98654175 C65.63152033 234.62348399 65.63152033 234.62348399 89 235.9375 C90.18133514 236.00284943 90.18133514 236.00284943 91.38653564 236.06951904 C97.97611728 236.44348611 104.49516499 236.81566885 111 238 C111 238.66 111 239.32 111 240 C114.96 240 118.92 240 123 240 C123 240.33 123 240.66 123 241 C124.17357056 241.03758423 124.17357056 241.03758423 125.37084961 241.07592773 C128.89324949 241.19149788 132.4153556 241.31439949 135.9375 241.4375 C137.16919922 241.47681641 138.40089844 241.51613281 139.66992188 241.55664062 C140.83974609 241.59853516 142.00957031 241.64042969 143.21484375 241.68359375 C144.84087524 241.73858032 144.84087524 241.73858032 146.49975586 241.79467773 C149 242 149 242 150 243 C152.81630224 243.21144292 155.61717799 243.37628157 158.4375 243.5 C166.73119964 243.86559982 166.73119964 243.86559982 169 245 C171.03391748 245.13065733 173.07172653 245.20273021 175.109375 245.24609375 C176.95402344 245.29540039 176.95402344 245.29540039 178.8359375 245.34570312 C181.42960694 245.4065327 184.02336087 245.46386757 186.6171875 245.51757812 C187.85210938 245.55173828 189.08703125 245.58589844 190.359375 245.62109375 C192.05271973 245.65867798 192.05271973 245.65867798 193.78027344 245.69702148 C197.11720426 246.011029 199.87353913 246.8191616 203 248 C206.58165209 294.79644375 206.58165209 294.79644375 206 313 C206.66 313 207.32 313 208 313 C208.33 324.55 208.66 336.1 209 348 C209.33 348 209.66 348 210 348 C210.33 355.59 210.66 363.18 211 371 C211.33 371 211.66 371 212 371 C212 403.34 212 435.68 212 469 C211.67 469 211.34 469 211 469 C210.67 477.25 210.34 485.5 210 494 C209.67 494 209.34 494 209 494 C208.97494385 495.17618896 208.9498877 496.35237793 208.92407227 497.56420898 C208.83017194 501.91214622 208.72990952 506.25991716 208.62768555 510.60766602 C208.58427067 512.49239218 208.54260057 514.37715936 208.50268555 516.26196289 C208.44514107 518.96513249 208.38140196 521.66809436 208.31640625 524.37109375 C208.29969376 525.21900986 208.28298126 526.06692596 208.26576233 526.9405365 C208.11387171 532.88612829 208.11387171 532.88612829 207 534 C206.86576259 535.62935144 206.79635799 537.26411696 206.75390625 538.8984375 C206.72224365 539.92718994 206.69058105 540.95594238 206.65795898 542.01586914 C206.61070679 543.67863892 206.61070679 543.67863892 206.5625 545.375 C206.19798542 556.32697048 205.33484258 567.12686484 204 578 C203.01 578 202.02 578 201 578 C201 578.66 201 579.32 201 580 C199.23244474 580.84026396 197.46082737 581.67198722 195.6875 582.5 C194.70136719 582.9640625 193.71523438 583.428125 192.69921875 583.90625 C190 585 190 585 187 585 C187 585.66 187 586.32 187 587 C186.01 587 185.02 587 184 587 C184 587.66 184 588.32 184 589 C183.07767578 589.29003906 183.07767578 589.29003906 182.13671875 589.5859375 C181.32847656 589.84632813 180.52023437 590.10671875 179.6875 590.375 C178.48673828 590.75785156 178.48673828 590.75785156 177.26171875 591.1484375 C174.77275472 591.98831811 174.77275472 591.98831811 172 594 C171.01 594 170.02 594 169 594 C169 594.66 169 595.32 169 596 C167.02 596 165.04 596 163 596 C163 596.66 163 597.32 163 598 C161.23244474 598.84026396 159.46082737 599.67198722 157.6875 600.5 C156.70136719 600.9640625 155.71523438 601.428125 154.69921875 601.90625 C152 603 152 603 149 603 C149 603.66 149 604.32 149 605 C147.02 605.66 145.04 606.32 143 607 C143 607.66 143 608.32 143 609 C123.78007443 609.26175612 104.56013639 609.52257829 85.34018326 609.78230286 C76.41509661 609.90293157 67.49001423 610.02386052 58.56494141 610.14550781 C50.78162653 610.25159236 42.9983041 610.35710181 35.21497226 610.46193409 C31.09762677 610.5174096 26.98028551 610.57316397 22.86295319 610.62960815 C18.97901384 610.68284366 15.09506476 610.7353039 11.21110725 610.78719711 C9.79386836 610.80626437 8.37663307 610.82560275 6.95940208 610.84524918 C2.63966603 610.9050368 -1.68008285 610.95534302 -6 611 C-7.69809185 611.02294632 -7.69809185 611.02294632 -9.43048859 611.0463562 C-10.49065941 611.05547028 -11.55083023 611.06458435 -12.64312744 611.07397461 C-13.56605717 611.08391953 -14.48898689 611.09386444 -15.43988419 611.10411072 C-19.17846707 610.95207598 -22.43205122 610.09783039 -26 609 C-26 608.34 -26 607.68 -26 607 C-26.99 607 -27.98 607 -29 607 C-29 606.34 -29 605.68 -29 605 C-29.99 605 -30.98 605 -32 605 C-32 604.34 -32 603.68 -32 603 C-32.804375 602.9175 -33.60875 602.835 -34.4375 602.75 C-38.95934205 601.79803325 -42.84702701 599.98419821 -47 598 C-47 597.34 -47 596.68 -47 596 C-48.3921875 596.061875 -48.3921875 596.061875 -49.8125 596.125 C-53 596 -53 596 -56 594 C-56 593.34 -56 592.68 -56 592 C-58.31 591.67 -60.62 591.34 -63 591 C-63 590.34 -63 589.68 -63 589 C-64.32 589 -65.64 589 -67 589 C-67 588.34 -67 587.68 -67 587 C-67.598125 586.855625 -68.19625 586.71125 -68.8125 586.5625 C-73.8245614 585.27368421 -73.8245614 585.27368421 -75.5625 582.5625 C-78.82360633 574.48062779 -79.29580546 566.64409285 -79 558 C-79.66 558 -80.32 558 -81 558 C-81.33 555.36 -81.66 552.72 -82 550 C-82.33 550 -82.66 550 -83 550 C-83.19335938 548.74445312 -83.38671875 547.48890625 -83.5859375 546.1953125 C-83.84849729 544.50513665 -84.11155023 542.81503736 -84.375 541.125 C-84.57863159 539.81523193 -84.57863159 539.81523193 -84.78637695 538.47900391 C-85.47939673 534.08154548 -86.22509067 529.72315152 -87.1875 525.375 C-88.14936248 520.85981084 -88.14864231 516.60791164 -88 512 C-88.66 512 -89.32 512 -90 512 C-90 508.37 -90 504.74 -90 501 C-89.67 501 -89.34 501 -89 501 C-88.98969254 500.26385971 -88.97938507 499.52771942 -88.96876526 498.76927185 C-88.87053347 491.81064439 -88.76798406 484.8520923 -88.66066074 477.89359951 C-88.60564337 474.31670972 -88.55225899 470.73981151 -88.50268555 467.1628418 C-88.4547273 463.70684775 -88.40237635 460.25094492 -88.34705925 456.79506111 C-88.31694889 454.84375981 -88.29131451 452.89239109 -88.26576233 450.94102478 C-88.24581711 449.74030838 -88.22587189 448.53959198 -88.20532227 447.30249023 C-88.18977798 446.25214096 -88.1742337 445.20179169 -88.15821838 444.11961365 C-87.98478936 440.70008966 -87.4857169 437.38822741 -87 434 C-86.87143649 431.78910313 -86.77887592 429.5758759 -86.71875 427.36206055 C-86.68201172 426.08771652 -86.64527344 424.8133725 -86.60742188 423.50041199 C-86.58993896 422.82987478 -86.57245605 422.15933758 -86.55444336 421.46848106 C-86.49915304 419.35433346 -86.43871269 417.240387 -86.37695312 415.12641907 C-86.22475119 409.88352839 -86.08058509 404.64042431 -85.9375 399.39727783 C-85.81598127 394.95033307 -85.69078875 390.50352429 -85.56030273 386.05683327 C-85.50067826 383.9729242 -85.44656365 381.88891699 -85.39257812 379.80485535 C-85.35583984 378.54627213 -85.31910156 377.2876889 -85.28125 375.9909668 C-85.25095703 374.87956833 -85.22066406 373.76816986 -85.18945312 372.62309265 C-85 370 -85 370 -84 368 C-71.13 368 -58.26 368 -45 368 C-45 368.33 -45 368.66 -45 369 C-40.71 369.33 -36.42 369.66 -32 370 C-32 370.66 -32 371.32 -32 372 C-31.14535156 371.98839844 -30.29070313 371.97679687 -29.41015625 371.96484375 C-27.75306641 371.95130859 -27.75306641 371.95130859 -26.0625 371.9375 C-24.96035156 371.92589844 -23.85820313 371.91429687 -22.72265625 371.90234375 C-20 372 -20 372 -19 373 C-16.2798628 373.36187404 -13.57342295 373.66762135 -10.84375 373.9375 C-10.02628296 374.02249756 -9.20881592 374.10749512 -8.36657715 374.19506836 C-5.74479656 374.46756839 -3.12249243 374.73444328 -0.5 375 C2.94845182 375.34919435 6.39625042 375.70404023 9.84375 376.0625 C10.64478149 376.14169678 11.44581299 376.22089355 12.27111816 376.30249023 C17.88719819 376.88719819 17.88719819 376.88719819 19 378 C19.15378434 380.02066664 19.23860892 382.04660034 19.29711914 384.07226562 C19.35705299 386.0378241 19.35705299 386.0378241 19.41819763 388.04309082 C19.45739475 389.49747154 19.49637455 390.95185814 19.53515625 392.40625 C19.57837003 393.90914734 19.62187823 395.41203623 19.66566467 396.91491699 C19.78131661 400.94431916 19.88980153 404.97388379 19.99619293 409.00354004 C20.06219198 411.48840312 20.13006209 413.97320874 20.19842529 416.45800781 C20.87875685 441.30959527 21.27154748 466.1383199 21 491 C25.62 491 30.24 491 35 491 C35 491.66 35 492.32 35 493 C35.97610229 492.99214478 35.97610229 492.99214478 36.97192383 492.98413086 C39.91877274 492.96335062 42.86560623 492.9503365 45.8125 492.9375 C46.83666016 492.92912109 47.86082031 492.92074219 48.91601562 492.91210938 C50.39038086 492.90727539 50.39038086 492.90727539 51.89453125 492.90234375 C53.25348511 492.89448853 53.25348511 492.89448853 54.63989258 492.88647461 C57 493 57 493 60 494 C70.23 494.66 80.46 495.32 91 496 C91.33 452.77 91.66 409.54 92 365 C92.33 365 92.66 365 93 365 C93 355.1 93 345.2 93 335 C88.5346875 335.020625 84.069375 335.04125 79.46875 335.0625 C60.9808978 335.09339677 42.51431857 334.60825676 24.0355835 334.07287598 C19.72303298 333.94892765 15.41033851 333.83019768 11.09765625 333.7109375 C2.73162759 333.47886459 -5.63423352 333.24133884 -14 333 C-14 332.34 -14 331.68 -14 331 C-15.98 331 -17.96 331 -20 331 C-20 330.34 -20 329.68 -20 329 C-23.63 329 -27.26 329 -31 329 C-31 328.34 -31 327.68 -31 327 C-32.0828125 327.061875 -32.0828125 327.061875 -33.1875 327.125 C-36.2514852 326.98882288 -38.18438372 326.16745065 -41 325 C-42.9924325 324.62406934 -44.9918674 324.28020455 -47 324 C-47 323.34 -47 322.68 -47 322 C-50.63 322 -54.26 322 -58 322 C-58 321.67 -58 321.34 -58 321 C-59.65 320.67 -61.3 320.34 -63 320 C-63 319.34 -63 318.68 -63 318 C-64.2684375 318.061875 -64.2684375 318.061875 -65.5625 318.125 C-69.35359184 317.98714211 -72.42854861 317.26051226 -76 316 C-77.58375358 312.83249284 -77.22066127 309.40392925 -77.28125 305.921875 C-77.30886414 304.71558441 -77.30886414 304.71558441 -77.33703613 303.48492432 C-77.39585798 300.90669155 -77.44859553 298.32839066 -77.5 295.75 C-77.5679497 292.36966117 -77.64173899 288.98951805 -77.71875 285.609375 C-77.73232544 284.83728699 -77.74590088 284.06519897 -77.7598877 283.26971436 C-77.83087085 280.15372502 -77.95894135 277.22839976 -78.51147461 274.15478516 C-79.2457869 269.41276447 -79.12192255 264.70487027 -79.09765625 259.9140625 C-79.0962413 258.85714203 -79.09482635 257.80022156 -79.09336853 256.71127319 C-79.0877894 253.34915284 -79.07524069 249.98710009 -79.0625 246.625 C-79.05748231 244.33984471 -79.05291987 242.05468838 -79.04882812 239.76953125 C-79.03782679 234.1796646 -79.02110944 228.58983713 -79 223 C-79.66 223 -80.32 223 -81 223 C-81.495 202.21 -81.495 202.21 -82 181 C-82.33 181 -82.66 181 -83 181 C-83.16991804 175.43585841 -83.33018471 169.87154491 -83.48217773 164.30688477 C-83.53497619 162.42074424 -83.59024166 160.53467087 -83.64819336 158.64868164 C-83.99335999 147.35422927 -84.04307781 136.2606721 -83 125 C-82.67 125 -82.34 125 -82 125 C-81.505 116.09 -81.505 116.09 -81 107 C-80.34 107 -79.68 107 -79 107 C-79.00523682 106.34402832 -79.01047363 105.68805664 -79.01586914 105.01220703 C-79.03661272 102.04981437 -79.04965176 99.08743697 -79.0625 96.125 C-79.07087891 95.09246094 -79.07925781 94.05992187 -79.08789062 92.99609375 C-79.09111328 92.00996094 -79.09433594 91.02382812 -79.09765625 90.0078125 C-79.10289307 89.09660645 -79.10812988 88.18540039 -79.11352539 87.24658203 C-79 85 -79 85 -78 83 C-77.78987131 81.1750542 -77.63160127 79.34400212 -77.5 77.51171875 C-77.4175 76.41279297 -77.335 75.31386719 -77.25 74.18164062 C-77.1675 73.02857422 -77.085 71.87550781 -77 70.6875 C-76.8361418 68.42036818 -76.66957281 66.1534303 -76.5 63.88671875 C-76.39171875 62.37404419 -76.39171875 62.37404419 -76.28125 60.83081055 C-76 58 -76 58 -75.48852539 55.54541016 C-74.89892191 52.47334327 -74.78352437 49.51311955 -74.68359375 46.38671875 C-74.64169922 45.13955078 -74.59980469 43.89238281 -74.55664062 42.60742188 C-74.51732422 41.31384766 -74.47800781 40.02027344 -74.4375 38.6875 C-74.39431641 37.37458984 -74.35113281 36.06167969 -74.30664062 34.70898438 C-74.20072773 31.47275712 -74.09865115 28.23645542 -74 25 C-72.35 24.34 -70.7 23.68 -69 23 C-69 22.67 -69 22.34 -69 22 C-67.35 22 -65.7 22 -64 22 C-64 21.34 -64 20.68 -64 20 C-62.02 19.67 -60.04 19.34 -58 19 C-58 18.67 -58 18.34 -58 18 C-56.78763672 17.80083984 -56.78763672 17.80083984 -55.55078125 17.59765625 C-54.48214844 17.42105469 -53.41351563 17.24445313 -52.3125 17.0625 C-51.25675781 16.88847656 -50.20101562 16.71445313 -49.11328125 16.53515625 C-46.39750396 16.06832879 -43.69875765 15.55577384 -41 15 C-41 14.34 -41 13.68 -41 13 C-38.03 13 -35.06 13 -32 13 C-32 12.34 -32 11.68 -32 11 C-29.29582041 9.54340726 -26.85275383 8.61862549 -23.84765625 8 C-23.07099609 7.835 -22.29433594 7.67 -21.49414062 7.5 C-20.69169922 7.335 -19.88925781 7.17 -19.0625 7 C-11.87528693 5.52742011 -11.87528693 5.52742011 -5 3 C-5 2.67 -5 2.34 -5 2 C-3.35 2 -1.7 2 0 2 C0 1.34 0 0.68 0 0 Z " fill="#04C0DF" transform="translate(561,141)"/>
<path d="M0 0 C16.5 0 33 0 50 0 C50 0.33 50 0.66 50 1 C82.175 1.495 82.175 1.495 115 2 C116.77997029 6.44992574 117.21222719 8.43711531 117 13 C117.66 13 118.32 13 119 13 C119.33 14.65 119.66 16.3 120 18 C120.33 18 120.66 18 121 18 C121 19.65 121 21.3 121 23 C121.66 23 122.32 23 123 23 C123.04898437 23.60328125 123.09796875 24.2065625 123.1484375 24.828125 C123.22320312 25.62734375 123.29796875 26.4265625 123.375 27.25 C123.44460938 28.03890625 123.51421875 28.8278125 123.5859375 29.640625 C124.01681308 32.09580281 124.86388074 33.8010595 126 36 C126.125 38.75 126.125 38.75 126 41 C126.66 41 127.32 41 128 41 C128.33 44.3 128.66 47.6 129 51 C129.33 51 129.66 51 130 51 C130.33 60.9 130.66 70.8 131 81 C131.33 81 131.66 81 132 81 C132.08302368 82.15786011 132.08302368 82.15786011 132.16772461 83.33911133 C132.42032312 86.8305432 132.67884036 90.32151215 132.9375 93.8125 C133.02451172 95.02744141 133.11152344 96.24238281 133.20117188 97.49414062 C133.28818359 98.65751953 133.37519531 99.82089844 133.46484375 101.01953125 C133.543396 102.09307861 133.62194824 103.16662598 133.70288086 104.27270508 C133.91248862 107.09017158 133.91248862 107.09017158 135 110 C135.20334483 112.48250142 135.37127832 114.95126464 135.5 117.4375 C135.68248311 122.23039777 135.68248311 122.23039777 136.49780273 126.9387207 C137.04282948 129.17579449 137.20767815 131.24805227 137.31640625 133.546875 C137.35830078 134.39121094 137.40019531 135.23554688 137.44335938 136.10546875 C137.50233398 137.41451172 137.50233398 137.41451172 137.5625 138.75 C137.60568359 139.63816406 137.64886719 140.52632812 137.69335938 141.44140625 C137.79913615 143.62745963 137.90122546 145.81362089 138 148 C138.33 148 138.66 148 139 148 C139.33 153.28 139.66 158.56 140 164 C140.33 164 140.66 164 141 164 C141.08302368 165.3300708 141.08302368 165.3300708 141.16772461 166.68701172 C141.37686255 170.02320793 141.58767195 173.35929028 141.79956055 176.6953125 C141.89038455 178.13049257 141.98057043 179.56571319 142.07006836 181.00097656 C142.52708136 188.32339714 143.03346344 195.62445487 143.81030273 202.92138672 C144.07552044 205.82751736 144.09641257 208.70851891 144.0625 211.625 C144.05347656 212.64851562 144.04445313 213.67203125 144.03515625 214.7265625 C144.02355469 215.47679687 144.01195312 216.22703125 144 217 C144.66 217 145.32 217 146 217 C146.33 221.62 146.66 226.24 147 231 C147.33 231 147.66 231 148 231 C148.33 237.27 148.66 243.54 149 250 C149.33 250 149.66 250 150 250 C150.01981934 250.69448242 150.03963867 251.38896484 150.06005859 252.10449219 C150.15664048 255.31997525 150.26576748 258.53492277 150.375 261.75 C150.42140625 263.38775391 150.42140625 263.38775391 150.46875 265.05859375 C150.70056102 271.58793752 151.37542032 277.82772588 152.54101562 284.25439453 C153.17047979 288.0197956 153.40737989 291.75259875 153.5625 295.5625 C153.77893431 300.85583477 153.77893431 300.85583477 155 306 C155.14777936 307.69867188 155.24747066 309.40177489 155.31640625 311.10546875 C155.35830078 312.08837891 155.40019531 313.07128906 155.44335938 314.08398438 C155.48267578 315.10814453 155.52199219 316.13230469 155.5625 317.1875 C155.60568359 318.22326172 155.64886719 319.25902344 155.69335938 320.32617188 C155.79944366 322.8839819 155.90150146 325.44188845 156 328 C156.33 328 156.66 328 157 328 C157 335.26 157 342.52 157 350 C157.66 350 158.32 350 159 350 C159.06058594 351.04800781 159.12117188 352.09601563 159.18359375 353.17578125 C159.26801738 354.55470048 159.35266447 355.93360605 159.4375 357.3125 C159.47681641 358.00279297 159.51613281 358.69308594 159.55664062 359.40429688 C159.74927415 362.47161535 160.02322717 365.06968152 161 368 C161.21130144 370.92171937 161.37524965 373.82838661 161.5 376.75390625 C161.54060547 377.61056381 161.58121094 378.46722137 161.62304688 379.34983826 C161.79678393 383.01671325 161.96062461 386.68401357 162.125 390.35131836 C162.24636905 393.02736362 162.37302633 395.70312202 162.5 398.37890625 C162.53544922 399.21224991 162.57089844 400.04559357 162.60742188 400.90419006 C162.7094209 405.0866124 162.7094209 405.0866124 164 409 C164.08372659 410.52148326 164.10730027 412.04655778 164.09765625 413.5703125 C164.09443359 414.46621094 164.09121094 415.36210938 164.08789062 416.28515625 C164.07951172 417.22230469 164.07113281 418.15945313 164.0625 419.125 C164.05798828 420.06988281 164.05347656 421.01476562 164.04882812 421.98828125 C164.03702357 424.32558387 164.02055759 426.66276061 164 429 C164.66 429 165.32 429 166 429 C166 433.95 166 438.9 166 444 C166.66 444 167.32 444 168 444 C168 454.56 168 465.12 168 476 C168.66 476 169.32 476 170 476 C170.05534912 476.96413818 170.11069824 477.92827637 170.16772461 478.92163086 C170.37363628 482.48702058 170.58565784 486.05202487 170.79956055 489.61694336 C170.89140788 491.16209192 170.98158137 492.7073409 171.07006836 494.25268555 C171.19729301 496.46952174 171.33046562 498.68593115 171.46484375 500.90234375 C171.52272316 501.94454323 171.52272316 501.94454323 171.58177185 503.00779724 C171.52772646 506.28947276 171.52772646 506.28947276 173 509 C173.23701239 511.85877909 173.42219182 514.69883297 173.5625 517.5625 C173.60568359 518.36880859 173.64886719 519.17511719 173.69335938 520.00585938 C173.79975262 522.00368805 173.90040888 524.0018207 174 526 C174.33 526 174.66 526 175 526 C175.33 535.24 175.66 544.48 176 554 C176.33 554 176.66 554 177 554 C177.33 559.61 177.66 565.22 178 571 C178.33 571 178.66 571 179 571 C179.31023784 575.80507909 179.61321869 580.61053933 179.90942383 585.41650391 C180.01125951 587.05204668 180.11509233 588.68746635 180.22094727 590.32275391 C180.37258227 592.67060476 180.51707631 595.01880174 180.66015625 597.3671875 C180.73351952 598.46726639 180.73351952 598.46726639 180.80836487 599.58956909 C181.11387171 604.77225659 181.11387171 604.77225659 180 607 C165.15 607 150.3 607 135 607 C135 606.67 135 606.34 135 606 C122.46 605.67 109.92 605.34 97 605 C97 604.34 97 603.68 97 603 C95.68 603 94.36 603 93 603 C93 602.34 93 601.68 93 601 C91.35 601 89.7 601 88 601 C88 600.34 88 599.68 88 599 C86.68 599 85.36 599 84 599 C83.17055685 594.6042871 82.82972843 590.37608332 82.71875 585.90625 C82.70034058 585.23766968 82.68193115 584.56908936 82.66296387 583.88024902 C82.60471086 581.7535815 82.55181493 579.6268334 82.5 577.5 C82.22193983 566.03062026 82.22193983 566.03062026 81.5 554.58203125 C80.55533699 542.310159 80.63040249 529.97016874 80.44775391 517.66870117 C80.39629432 514.29337748 80.33904092 510.91818903 80.28125 507.54296875 C80.26088684 505.97605537 80.26088684 505.97605537 80.2401123 504.37748718 C80.21503601 502.94382561 80.21503601 502.94382561 80.18945312 501.48120117 C80.17692505 500.63740402 80.16439697 499.79360687 80.15148926 498.92424011 C80.2089767 496.99250034 80.2089767 496.99250034 79 496 C78.87802192 494.61949142 78.82231101 493.23302353 78.79467773 491.84741211 C78.77473251 490.96657455 78.75478729 490.085737 78.73423767 489.1782074 C78.70916893 487.74227989 78.70916893 487.74227989 78.68359375 486.27734375 C78.66281265 485.30213272 78.64203156 484.32692169 78.62062073 483.32215881 C78.55501588 480.1940137 78.49618972 477.06578178 78.4375 473.9375 C78.39432517 471.8222565 78.35071123 469.70702191 78.30664062 467.59179688 C78.19932345 462.39462413 78.0975778 457.19736423 78 452 C77.67 452 77.34 452 77 452 C77 441.11 77 430.22 77 419 C68.75 419.33 60.5 419.66 52 420 C52 420.33 52 420.66 52 421 C42.76 421.33 33.52 421.66 24 422 C24 422.33 24 422.66 24 423 C15.75 423 7.5 423 -1 423 C-1.33 429.93 -1.66 436.86 -2 444 C-1.34 444 -0.68 444 0 444 C0.33 452.91 0.66 461.82 1 471 C1.33 471 1.66 471 2 471 C2.33 486.51 2.66 502.02 3 518 C3.33 518 3.66 518 4 518 C4.02283554 518.64257751 4.04567108 519.28515503 4.06919861 519.94720459 C4.30754632 526.63068552 4.551825 533.31393091 4.79956055 539.99707031 C4.89125492 542.49180639 4.98143307 544.98659868 5.07006836 547.48144531 C5.19767771 551.06591368 5.33072505 554.65014503 5.46484375 558.234375 C5.50343002 559.35116638 5.5420163 560.46795776 5.58177185 561.61859131 C5.62173782 562.65936829 5.6617038 563.70014526 5.70288086 564.77246094 C5.73619003 565.68735291 5.76949921 566.60224487 5.80381775 567.54486084 C5.91084877 569.90973368 5.91084877 569.90973368 6.50615788 571.75989151 C7.14251615 574.64646496 7.11159788 577.34124967 7.09765625 580.296875 C7.09443359 581.50214844 7.09121094 582.70742188 7.08789062 583.94921875 C7.07951172 585.20347656 7.07113281 586.45773437 7.0625 587.75 C7.05798828 589.01972656 7.05347656 590.28945313 7.04882812 591.59765625 C7.03704556 594.73181836 7.02059416 597.86588541 7 601 C-9.0216347 601.04692418 -25.04324677 601.08208814 -41.06493378 601.10362434 C-48.50571503 601.11389411 -55.94645335 601.12787115 -63.38720703 601.15087891 C-69.87995991 601.17094559 -76.37268166 601.18374759 -82.86546469 601.18817699 C-86.2966253 601.19076213 -89.72769693 601.19674615 -93.15882874 601.21146011 C-106.95807338 601.26405763 -120.35556343 601.17618221 -134 599 C-134 589.43 -134 579.86 -134 570 C-133.67 570 -133.34 570 -133 570 C-132.98969254 568.90641174 -132.97938507 567.81282349 -132.96876526 566.68609619 C-132.87105893 556.38598515 -132.76832739 546.08593489 -132.66066074 535.785923 C-132.60546868 530.49044112 -132.55205455 525.19495369 -132.50268555 519.89941406 C-132.45498727 514.79006896 -132.40264238 509.68079077 -132.34705925 504.57152557 C-132.32666048 502.62108778 -132.30794332 500.67063166 -132.29092598 498.72016144 C-132.26682719 495.99078237 -132.23678 493.26152934 -132.20532227 490.53222656 C-132.1995668 489.72374268 -132.19381134 488.91525879 -132.18788147 488.08227539 C-132.14152239 484.54954179 -131.89897074 481.40466063 -131 478 C-130.89943112 476.56249149 -130.84487148 475.12132388 -130.82641602 473.68041992 C-130.81284561 472.82043396 -130.79927521 471.960448 -130.78529358 471.07440186 C-130.77493576 470.13590393 -130.76457794 469.19740601 -130.75390625 468.23046875 C-130.72209611 466.15616722 -130.6901902 464.08186716 -130.65820312 462.00756836 C-130.63512085 460.34707962 -130.63512085 460.34707962 -130.61157227 458.65304565 C-130.30363152 436.90587974 -129.7322673 415.17418877 -129 393.4375 C-128.06749548 365.62844739 -127.4427728 337.82089089 -127 310 C-126.67 310 -126.34 310 -126 310 C-125.67 283.6 -125.34 257.2 -125 230 C-124.67 230 -124.34 230 -124 230 C-123.93941406 229.00097656 -123.87882813 228.00195312 -123.81640625 226.97265625 C-123.73261719 225.68230469 -123.64882812 224.39195312 -123.5625 223.0625 C-123.48128906 221.77472656 -123.40007812 220.48695313 -123.31640625 219.16015625 C-123 216 -123 216 -122 215 C-121.79111292 213.00396794 -121.63224523 211.00257059 -121.5 209 C-121.11111111 203.11111111 -121.11111111 203.11111111 -120 202 C-119.7688199 199.48323327 -119.59663561 196.9873602 -119.46484375 194.46484375 C-119.42186661 193.71159317 -119.37888947 192.95834259 -119.33460999 192.18226624 C-119.19785278 189.76756711 -119.06761019 187.35256554 -118.9375 184.9375 C-118.84613078 183.30401248 -118.75433947 181.67054851 -118.66210938 180.03710938 C-118.43650067 176.02499685 -118.21673536 172.01260125 -118 168 C-117.67 168 -117.34 168 -117 168 C-116.67 162.72 -116.34 157.44 -116 152 C-115.67 152 -115.34 152 -115 152 C-114.67 148.37 -114.34 144.74 -114 141 C-113.34 141 -112.68 141 -112 141 C-112.01047363 140.39115967 -112.02094727 139.78231934 -112.03173828 139.1550293 C-112.34009717 118.52425819 -112.34009717 118.52425819 -110.5078125 110.6015625 C-109.6174112 106.03996816 -109.49236297 101.40731947 -109.24609375 96.7734375 C-109 94 -109 94 -108 93 C-107.76518307 90.81707226 -107.58636677 88.62796826 -107.4375 86.4375 C-107.35371094 85.23996094 -107.26992187 84.04242188 -107.18359375 82.80859375 C-107.09271484 81.41833984 -107.09271484 81.41833984 -107 80 C-106.67 80 -106.34 80 -106 80 C-105.67 72.08 -105.34 64.16 -105 56 C-104.34 56 -103.68 56 -103 56 C-103.01160156 55.28972656 -103.02320313 54.57945312 -103.03515625 53.84765625 C-103.04417969 52.92855469 -103.05320313 52.00945312 -103.0625 51.0625 C-103.07410156 50.14597656 -103.08570313 49.22945312 -103.09765625 48.28515625 C-103 46 -103 46 -102 45 C-101.79461317 42.85449181 -101.65190205 40.70293356 -101.53515625 38.55078125 C-101.45656442 37.21418186 -101.37778214 35.87759367 -101.29882812 34.54101562 C-101.17969165 32.43252012 -101.06311116 30.32393899 -100.95043945 28.21508789 C-100.83995958 26.18067652 -100.71933868 24.14704911 -100.59765625 22.11328125 C-100.53070557 20.89423096 -100.46375488 19.67518066 -100.39477539 18.41918945 C-100.00372693 15.03227929 -99.19871314 12.18207721 -98 9 C-94.37 8.67 -90.74 8.34 -87 8 C-87 7.67 -87 7.34 -87 7 C-79.7086633 6.56700981 -72.41696724 6.14049879 -65.125 5.71826172 C-62.64998005 5.57420782 -60.17504254 5.42872961 -57.70019531 5.28173828 C-31.30742646 3.71606555 -31.30742646 3.71606555 -20 4 C-20 3.34 -20 2.68 -20 2 C-10.1 1.505 -10.1 1.505 0 1 C0 0.67 0 0.34 0 0 Z M-3 118 C-2.98952637 119.04341553 -2.97905273 120.08683105 -2.96826172 121.16186523 C-2.93178811 125.07003282 -2.90900094 128.97818566 -2.89013672 132.88647461 C-2.88014103 134.57107075 -2.86653996 136.25564981 -2.84912109 137.94018555 C-2.82458724 140.37553141 -2.81345242 142.81064592 -2.8046875 145.24609375 C-2.79436493 145.98709824 -2.78404236 146.72810272 -2.77340698 147.49156189 C-2.77242826 152.15682448 -3.4359584 156.28733264 -4.53488159 160.81455994 C-5.24774269 164.16406231 -5.33106164 167.46203765 -5.4140625 170.87890625 C-5.43342865 171.57644516 -5.4527948 172.27398407 -5.4727478 172.99266052 C-5.53169344 175.18248949 -5.5785816 177.37237351 -5.625 179.5625 C-5.66325846 181.06317176 -5.70231451 182.5638234 -5.7421875 184.06445312 C-5.83732196 187.70944944 -5.92165908 191.35459954 -6 195 C-6.33 195 -6.66 195 -7 195 C-7.33 202.59 -7.66 210.18 -8 218 C-8.33 218 -8.66 218 -9 218 C-9 249.02 -9 280.04 -9 312 C-8.34 312 -7.68 312 -7 312 C-7 313.32 -7 314.64 -7 316 C-6.34 316 -5.68 316 -5 316 C-5.061875 316.86625 -5.12375 317.7325 -5.1875 318.625 C-4.97224841 322.49952862 -4.05351295 324.72959049 -2 328 C1.55254201 329.18418067 4.29194694 329.07981494 8.04174805 329.02172852 C8.75419678 329.01212097 9.46664551 329.00251343 10.20068359 328.99261475 C12.55446319 328.95964616 14.90805594 328.91930578 17.26171875 328.87890625 C18.8941024 328.85460304 20.52649295 328.83075957 22.15888977 328.80735779 C26.45468004 328.74453689 30.75034802 328.67546458 35.04602051 328.60510254 C39.42971224 328.5344011 43.81349066 328.46959496 48.19726562 328.40429688 C56.79827307 328.27531022 65.39916027 328.13972113 74 328 C74.08697597 322.82976195 74.17133141 317.71356582 73.51757812 312.57617188 C72.81475031 306.98760709 72.78896437 301.40777556 72.71875 295.78125 C72.68099764 293.44531237 72.64323699 291.10937487 72.60546875 288.7734375 C72.55159443 285.11492629 72.49938463 281.45639509 72.44775391 277.79785156 C72.39624139 274.25057661 72.33896569 270.70342857 72.28125 267.15625 C72.26767456 266.05220825 72.25409912 264.9481665 72.2401123 263.81066895 C72.22339478 262.7987146 72.20667725 261.78676025 72.18945312 260.74414062 C72.17692505 259.84973267 72.16439697 258.95532471 72.15148926 258.03381348 C72.22284334 256.00530007 72.22284334 256.00530007 71 255 C70.83996512 252.33573315 70.74057111 249.69439572 70.68359375 247.02734375 C70.6524221 245.83087975 70.6524221 245.83087975 70.62062073 244.61024475 C70.55503842 242.05275389 70.49620033 239.4951572 70.4375 236.9375 C70.39432301 235.20767118 70.35070899 233.47785321 70.30664062 231.74804688 C70.19934828 227.4988074 70.09810574 223.2494611 70 219 C69.67 219 69.34 219 69 219 C68.67 191.61 68.34 164.22 68 136 C64.37 136 60.74 136 57 136 C57 135.34 57 134.68 57 134 C55.35 134 53.7 134 52 134 C52 133.34 52 132.68 52 132 C50.72125 131.690625 49.4425 131.38125 48.125 131.0625 C45.89898325 130.52394756 44.05260001 130.0263 42 129 C40.29636178 128.77377919 38.58671299 128.59111527 36.875 128.4375 C35.96492188 128.35371094 35.05484375 128.26992188 34.1171875 128.18359375 C33.06917969 128.09271484 33.06917969 128.09271484 32 128 C32 127.67 32 127.34 32 127 C30.35 127 28.7 127 27 127 C27 126.34 27 125.68 27 125 C24.69 125 22.38 125 20 125 C20 124.34 20 123.68 20 123 C19.03578125 122.80664062 18.0715625 122.61328125 17.078125 122.4140625 C15.18320312 122.02347656 15.18320312 122.02347656 13.25 121.625 C11.37054688 121.24214844 11.37054688 121.24214844 9.453125 120.8515625 C6 120 6 120 3.859375 118.8984375 C1.48691967 117.75208303 -0.39452162 117.93862556 -3 118 Z " fill="#03C0DE" transform="translate(273,143)"/>
<path d="M0 0 C16.5 0 33 0 50 0 C50 0.33 50 0.66 50 1 C82.175 1.495 82.175 1.495 115 2 C116.70509 6.26272499 117.4721307 9.51311093 118 14 C117.01 13.67 116.02 13.34 115 13 C114.505 8.545 114.505 8.545 114 4 C72.42 4 30.84 4 -12 4 C-12 3.34 -12 2.68 -12 2 C-6.06 1.505 -6.06 1.505 0 1 C0 0.67 0 0.34 0 0 Z " fill="#50C1CC" transform="translate(273,143)"/>
<path d="M0 0 C2.64 0 5.28 0 8 0 C8 0.66 8 1.32 8 2 C9.30921417 1.83766876 10.61842834 1.67533752 11.96731567 1.50808716 C16.50406166 1.00627985 20.9622292 0.85800394 25.52294922 0.87060547 C26.72272148 0.86797699 26.72272148 0.86797699 27.94673157 0.86529541 C30.56607295 0.86092987 33.18534554 0.86379894 35.8046875 0.8671875 C37.65202853 0.86651228 39.49936947 0.86554044 41.34671021 0.86428833 C45.21487272 0.86281794 49.08301207 0.86494224 52.95117188 0.86962891 C57.85344764 0.87528565 62.75566814 0.87206889 67.65794182 0.86605644 C71.47606808 0.86239853 75.29418181 0.86361376 79.1123085 0.86618423 C80.91639335 0.86684124 82.72047942 0.86606916 84.52456284 0.86370468 C96.71558305 0.85124505 108.83211042 1.24461504 121 2 C121 2.33 121 2.66 121 3 C64.075 3.495 64.075 3.495 6 4 C5.67 3.01 5.34 2.02 5 1 C3.35 1 1.7 1 0 1 C0 0.67 0 0.34 0 0 Z " fill="#08BFDD" transform="translate(253,145)"/>
<path d="M0 0 C0.99 0.33 1.98 0.66 3 1 C2.67 34.33 2.34 67.66 2 102 C2.66 102 3.32 102 4 102 C4 103.65 4 105.3 4 107 C3.34 106.67 2.68 106.34 2 106 C2 105.01 2 104.02 2 103 C1.34 103 0.68 103 0 103 C0 69.01 0 35.02 0 0 Z " fill="#7EE8F6" transform="translate(262,353)"/>
<path d="M0 0 C0.66 0 1.32 0 2 0 C1.67 1.32 1.34 2.64 1 4 C-7.81756201 4.15692167 -16.63522272 4.30496168 -25.45310116 4.4429636 C-29.55174119 4.50735974 -33.65029798 4.57433554 -37.7487793 4.64819336 C-59.8695704 5.04443661 -81.89184269 4.90008296 -104 4 C-104 3.34 -104 2.68 -104 2 C-69.68 2 -35.36 2 0 2 C0 1.34 0 0.68 0 0 Z " fill="#89EDF9" transform="translate(703,746)"/>
<path d="M0 0 C0.66 0 1.32 0 2 0 C2 25.08 2 50.16 2 76 C2.66 76 3.32 76 4 76 C4 79.63 4 83.26 4 87 C3.67 87 3.34 87 3 87 C3 85.02 3 83.04 3 81 C2.01 81 1.02 81 0 81 C0 54.27 0 27.54 0 0 Z " fill="#0093BE" transform="translate(769,523)"/>
<path d="M0 0 C0.99 0 1.98 0 3 0 C3 20.79 3 41.58 3 63 C2.01 63.495 2.01 63.495 1 64 C0.2931013 52.97995427 -0.13653099 42.04383971 0 31 C0 30.34 0 29.68 0 29 C0 19.33333333 0 9.66666667 0 0 Z " fill="#5FDDEF" transform="translate(355,658)"/>
<path d="M0 0 C0.76570312 0.03931641 1.53140625 0.07863281 2.3203125 0.11914062 C5.49855696 0.30035632 8.21519259 0.55089753 11.25 1.5625 C11.25 2.2225 11.25 2.8825 11.25 3.5625 C3.98126997 3.45374028 -3.28738525 3.34088669 -10.55597591 3.22316074 C-13.93304307 3.16858507 -17.31011916 3.11528928 -20.68725586 3.06518555 C-49.41788297 2.63382673 -49.41788297 2.63382673 -63.75 1.5625 C-63.75 1.2325 -63.75 0.9025 -63.75 0.5625 C-58.47052609 0.41748706 -53.19098746 0.27520571 -47.91137695 0.13525391 C-46.12229516 0.08746809 -44.33323178 0.03898731 -42.54418945 -0.01025391 C-13.4740837 -0.80892796 -13.4740837 -0.80892796 0 0 Z " fill="#76E2F4" transform="translate(657.75,377.4375)"/>
<path d="M0 0 C0.33 0 0.66 0 1 0 C1.05784708 4.12494151 1.09354407 8.24977944 1.125 12.375 C1.14175781 13.550625 1.15851562 14.72625 1.17578125 15.9375 C1.18544922 17.61972656 1.18544922 17.61972656 1.1953125 19.3359375 C1.21102295 20.89127197 1.21102295 20.89127197 1.22705078 22.47802734 C1 25 1 25 -1 27 C-3.83205298 27.20618801 -6.54306784 27.28152534 -9.375 27.25 C-10.20684814 27.24613281 -11.03869629 27.24226563 -11.89575195 27.23828125 C-21.3209812 27.11161461 -30.64682109 26.10385252 -40 25 C-40 24.67 -40 24.34 -40 24 C-27.46 24 -14.92 24 -2 24 C-2 20.7 -2 17.4 -2 14 C-1.72395092 11.45147543 -1.39724925 8.90746394 -1 6.375 C-0.7215625 4.56128906 -0.7215625 4.56128906 -0.4375 2.7109375 C-0.293125 1.81632812 -0.14875 0.92171875 0 0 Z " fill="#94E1EC" transform="translate(768,313)"/>
<path d="M0 0 C0.66 0.33 1.32 0.66 2 1 C2 18.16 2 35.32 2 53 C0.515 53.495 0.515 53.495 -1 54 C-0.67 36.18 -0.34 18.36 0 0 Z " fill="#C7F6FD" transform="translate(655,479)"/>
<path d="M0 0 C0.66 0 1.32 0 2 0 C2.19466332 1.79090253 2.38051213 3.58276505 2.5625 5.375 C2.66691406 6.37273438 2.77132813 7.37046875 2.87890625 8.3984375 C3 11 3 11 2 13 C-4.93 13 -11.86 13 -19 13 C-18.67 11.68 -18.34 10.36 -18 9 C-12.39 9 -6.78 9 -1 9 C-1 6.69 -1 4.38 -1 2 C-0.67 1.34 -0.34 0.68 0 0 Z " fill="#74C8D5" transform="translate(451,737)"/>
<path d="M0 0 C0.66 0 1.32 0 2 0 C1.67 13.2 1.34 26.4 1 40 C0.01 39.67 -0.98 39.34 -2 39 C-2.10506407 30.98010959 -2.0293704 23.00766903 -1.5625 15 C-1.52326416 14.30720947 -1.48402832 13.61441895 -1.44360352 12.90063477 C-1.17056034 8.55238292 -0.6663907 4.30073996 0 0 Z " fill="#73E3EF" transform="translate(485,200)"/>
<path d="M0 0 C11.22 0 22.44 0 34 0 C35.70509 4.26272499 36.4721307 7.51311093 37 12 C36.01 11.67 35.02 11.34 34 11 C33.505 6.545 33.505 6.545 33 2 C22.44 2 11.88 2 1 2 C0.67 1.34 0.34 0.68 0 0 Z " fill="#C6F6FD" transform="translate(354,145)"/>
<path d="M0 0 C-2.42816451 2.85278731 -2.81541764 2.98427493 -6.8515625 3.328125 C-8.44289349 3.31869589 -10.03418432 3.2915776 -11.625 3.25 C-12.4600708 3.23904297 -13.2951416 3.22808594 -14.15551758 3.21679688 C-22.45050482 3.07295768 -30.72642423 2.59323975 -39 2 C-39 1.67 -39 1.34 -39 1 C-25.99069108 -0.05736038 -13.04584256 -0.11145896 0 0 Z " fill="#07B5CE" transform="translate(758,387)"/>
<path d="M0 0 C0.66 0 1.32 0 2 0 C2 11.22 2 22.44 2 34 C1.34 34 0.68 34 0 34 C-0.19849851 29.83378191 -0.38180993 25.66702543 -0.5625 21.5 C-0.61857422 20.32695312 -0.67464844 19.15390625 -0.73242188 17.9453125 C-0.99083088 11.81240536 -1.01245442 6.0597272 0 0 Z " fill="#CDF9FC" transform="translate(478,273)"/>
<path d="M0 0 C1.92870117 3.85740233 2.24283376 5.11629643 2.1953125 9.203125 C2.18886719 10.1828125 2.18242187 11.1625 2.17578125 12.171875 C2.15902344 13.18765625 2.14226562 14.2034375 2.125 15.25 C2.11597656 16.28125 2.10695312 17.3125 2.09765625 18.375 C2.07412138 20.91676616 2.03825131 23.45841272 2 26 C8.93 26 15.86 26 23 26 C23 26.33 23 26.66 23 27 C22.06148193 27.03758423 22.06148193 27.03758423 21.10400391 27.07592773 C18.27745381 27.19175273 15.45124831 27.31453985 12.625 27.4375 C11.64015625 27.47681641 10.6553125 27.51613281 9.640625 27.55664062 C8.69960937 27.59853516 7.75859375 27.64042969 6.7890625 27.68359375 C5.48509521 27.73858032 5.48509521 27.73858032 4.15478516 27.79467773 C1.9516738 27.87401544 1.9516738 27.87401544 0 29 C0 19.43 0 9.86 0 0 Z " fill="#0898AA" transform="translate(139,713)"/>
<path d="M0 0 C0.66 0 1.32 0 2 0 C2.05534912 0.60062256 2.11069824 1.20124512 2.16772461 1.82006836 C2.41970782 4.52633131 2.6785117 7.23189884 2.9375 9.9375 C3.02451172 10.88302734 3.11152344 11.82855469 3.20117188 12.80273438 C3.28818359 13.70185547 3.37519531 14.60097656 3.46484375 15.52734375 C3.543396 16.35999756 3.62194824 17.19265137 3.70288086 18.05053711 C3.80311398 20.000612 3.80311398 20.000612 5 21 C5.04063832 22.66617115 5.042721 24.33388095 5 26 C5.66 26 6.32 26 7 26 C7 26.66 7 27.32 7 28 C7.804375 28.12375 8.60875 28.2475 9.4375 28.375 C10.7059375 28.684375 10.7059375 28.684375 12 29 C12.33 29.66 12.66 30.32 13 31 C10.23723823 30.47731534 7.6739124 29.89130413 5 29 C-0.10612148 21.03445049 -0.80188624 10.25038856 -1 1 C-0.67 0.67 -0.34 0.34 0 0 Z " fill="#BDF3F6" transform="translate(482,697)"/>
<path d="M0 0 C0.66 0 1.32 0 2 0 C2 10.23 2 20.46 2 31 C1.34 31.33 0.68 31.66 0 32 C-0.16726689 27.60364953 -0.32786093 23.20712239 -0.48217773 18.81030273 C-0.53566434 17.31349062 -0.5909987 15.81674337 -0.64819336 14.32006836 C-0.72991956 12.17315668 -0.8050746 10.02610207 -0.87890625 7.87890625 C-0.9260376 6.5854126 -0.97316895 5.29191895 -1.02172852 3.95922852 C-1 1 -1 1 0 0 Z " fill="#C0F6FB" transform="translate(343,351)"/>
<path d="M0 0 C0.33 0 0.66 0 1 0 C1.33 4.62 1.66 9.24 2 14 C2.33 14 2.66 14 3 14 C3 18.62 3 23.24 3 28 C1.68 28 0.36 28 -1 28 C-1.02886338 23.52084672 -1.04675187 19.04171709 -1.0625 14.5625 C-1.07087891 13.28310547 -1.07925781 12.00371094 -1.08789062 10.68554688 C-1.09111328 9.47060547 -1.09433594 8.25566406 -1.09765625 7.00390625 C-1.10289307 5.87799072 -1.10812988 4.7520752 -1.11352539 3.59204102 C-1 1 -1 1 0 0 Z " fill="#99C9CE" transform="translate(272,600)"/>
<path d="M0 0 C0.66 0 1.32 0 2 0 C2 9.57 2 19.14 2 29 C1.01 29 0.02 29 -1 29 C-0.67 19.43 -0.34 9.86 0 0 Z " fill="#B0F0F8" transform="translate(146,485)"/>
<path d="M0 0 C9.57 0 19.14 0 29 0 C29 0.99 29 1.98 29 3 C19.43 2.67 9.86 2.34 0 2 C0 1.34 0 0.68 0 0 Z " fill="#C7F8FC" transform="translate(387,746)"/>
<path d="M0 0 C0.66 0 1.32 0 2 0 C2 3.96 2 7.92 2 12 C2.66 12 3.32 12 4 12 C4.33 17.94 4.66 23.88 5 30 C4.01 30 3.02 30 2 30 C1.6615815 26.3129484 1.33018392 22.62529741 1 18.9375 C0.90460938 17.89916016 0.80921875 16.86082031 0.7109375 15.79101562 C0.24100046 10.50422394 -0.12045745 5.30765619 0 0 Z " fill="#86D4E4" transform="translate(428,481)"/>
<path d="M0 0 C0.33 0.66 0.66 1.32 1 2 C0.67 2.66 0.34 3.32 0 4 C-7.92 4 -15.84 4 -24 4 C-24 3.67 -24 3.34 -24 3 C-21.03 3 -18.06 3 -15 3 C-15 2.34 -15 1.68 -15 1 C-10.05 0.67 -5.1 0.34 0 0 Z " fill="#004F60" transform="translate(432,746)"/>
<path d="M0 0 C7.59 0 15.18 0 23 0 C23 0.66 23 1.32 23 2 C15.41 2.33 7.82 2.66 0 3 C0 2.01 0 1.02 0 0 Z " fill="#B2F4F9" transform="translate(285,562)"/>
<path d="M0 0 C0.33 0 0.66 0 1 0 C1.02886984 3.97915159 1.04675406 7.95827653 1.0625 11.9375 C1.07087891 13.07380859 1.07925781 14.21011719 1.08789062 15.38085938 C1.09111328 16.46044922 1.09433594 17.54003906 1.09765625 18.65234375 C1.10289307 19.65257568 1.10812988 20.65280762 1.11352539 21.68334961 C1 24 1 24 0 25 C-0.23192865 26.51469448 -0.41215238 28.03754562 -0.5625 29.5625 C-0.64628906 30.38878906 -0.73007812 31.21507812 -0.81640625 32.06640625 C-0.87699219 32.70449219 -0.93757812 33.34257812 -1 34 C-1.33 34 -1.66 34 -2 34 C-2 28.06 -2 22.12 -2 16 C-1.34 16 -0.68 16 0 16 C0 10.72 0 5.44 0 0 Z " fill="#008397" transform="translate(768,454)"/>
<path d="M0 0 C6.39205856 0.72362927 12.68027076 1.80343362 19 3 C19 3.66 19 4.32 19 5 C15.04 5 11.08 5 7 5 C7 4.34 7 3.68 7 3 C5.824375 3.0928125 5.824375 3.0928125 4.625 3.1875 C3.75875 3.125625 2.8925 3.06375 2 3 C1.34 2.01 0.68 1.02 0 0 Z " fill="#6AD5E1" transform="translate(523,465)"/>
<path d="M0 0 C0.99 0.495 0.99 0.495 2 1 C3.16670117 4.50010351 3.2944849 7.56540778 3.5 11.25 C3.78000543 16.23009654 4.23479132 21.07715751 5 26 C4.01 26 3.02 26 2 26 C1.93941406 24.78441406 1.87882812 23.56882812 1.81640625 22.31640625 C1.73201668 20.73175772 1.6473679 19.14712298 1.5625 17.5625 C1.52318359 16.76005859 1.48386719 15.95761719 1.44335938 15.13085938 C1.5945704 11.24760439 1.5945704 11.24760439 0 8 C-0.14115161 5.32941149 -0.04247107 2.67567762 0 0 Z " fill="#D4FEFE" transform="translate(405,249)"/>
<path d="M0 0 C0.33 0 0.66 0 1 0 C1 7.92 1 15.84 1 24 C0.34 24 -0.32 24 -1 24 C-1.33 17.07 -1.66 10.14 -2 3 C-1.34 3 -0.68 3 0 3 C0 2.01 0 1.02 0 0 Z " fill="#1B8796" transform="translate(402,194)"/>
<path d="M0 0 C0.66 0 1.32 0 2 0 C2 4.62 2 9.24 2 14 C4.64 14 7.28 14 10 14 C10 14.66 10 15.32 10 16 C8.52093108 16.02689216 7.04172517 16.04634621 5.5625 16.0625 C4.32693359 16.07990234 4.32693359 16.07990234 3.06640625 16.09765625 C1 16 1 16 0 15 C-0.07313567 12.46950598 -0.09247527 9.96695163 -0.0625 7.4375 C-0.05798828 6.72658203 -0.05347656 6.01566406 -0.04882812 5.28320312 C-0.03700864 3.52209987 -0.01907263 1.76103964 0 0 Z " fill="#DCFAFD" transform="translate(542,360)"/>
<path d="M0 0 C1.32 0 2.64 0 4 0 C4 0.66 4 1.32 4 2 C3.01 2 2.02 2 1 2 C1 2.66 1 3.32 1 4 C-0.76755526 4.84026396 -2.53917263 5.67198722 -4.3125 6.5 C-5.29863281 6.9640625 -6.28476562 7.428125 -7.30078125 7.90625 C-10 9 -10 9 -13 9 C-13 9.66 -13 10.32 -13 11 C-14.32 11 -15.64 11 -17 11 C-17 10.34 -17 9.68 -17 9 C-15.33737425 8.28744611 -13.67469325 7.57502084 -12.01171875 6.86328125 C-10.70073565 6.30070404 -9.39078339 5.73571662 -8.08203125 5.16796875 C-5.40755631 4.01036019 -2.76648716 2.92216239 0 2 C0 1.34 0 0.68 0 0 Z " fill="#A7F1F7" transform="translate(723,735)"/>
<path d="M0 0 C0.33 0 0.66 0 1 0 C1 2.64 1 5.28 1 8 C1.66 8 2.32 8 3 8 C4.12862175 13.36095333 4.09688221 18.55306686 4 24 C3.34 24 2.68 24 2 24 C2 20.7 2 17.4 2 14 C1.34 14 0.68 14 0 14 C0 9.38 0 4.76 0 0 Z " fill="#007E9B" transform="translate(487,166)"/>
<path d="M0 0 C0.33 0 0.66 0 1 0 C1 7.92 1 15.84 1 24 C0.01 23.67 -0.98 23.34 -2 23 C-2 19.37 -2 15.74 -2 12 C-1.67 12 -1.34 12 -1 12 C-0.67 8.04 -0.34 4.08 0 0 Z " fill="#8ACCE3" transform="translate(473,630)"/>
<path d="M0 0 C2.475 0.495 2.475 0.495 5 1 C5 7.27 5 13.54 5 20 C4.34 20 3.68 20 3 20 C2.67 14.39 2.34 8.78 2 3 C1.34 2.67 0.68 2.34 0 2 C0 1.34 0 0.68 0 0 Z " fill="#CCF8FD" transform="translate(347,559)"/>
<path d="M0 0 C1.65 0.33 3.3 0.66 5 1 C5 3.31 5 5.62 5 8 C4.34 8 3.68 8 3 8 C3 6.02 3 4.04 3 2 C2.01 2.66 1.02 3.32 0 4 C-2.91796875 4.1953125 -2.91796875 4.1953125 -6.1875 4.125 C-7.27417969 4.10695313 -8.36085938 4.08890625 -9.48046875 4.0703125 C-10.72763672 4.03550781 -10.72763672 4.03550781 -12 4 C-11.67 3.34 -11.34 2.68 -11 2 C-7.37 2 -3.74 2 0 2 C0 1.34 0 0.68 0 0 Z " fill="#00B4D3" transform="translate(575,518)"/>
<path d="M0 0 C0.33 0 0.66 0 1 0 C1.33 5.94 1.66 11.88 2 18 C1.01 18.33 0.02 18.66 -1 19 C-1.02683987 16.02077407 -1.04676037 13.04178705 -1.0625 10.0625 C-1.07087891 9.21236328 -1.07925781 8.36222656 -1.08789062 7.48632812 C-1.09111328 6.67744141 -1.09433594 5.86855469 -1.09765625 5.03515625 C-1.10289307 4.2862915 -1.10812988 3.53742676 -1.11352539 2.76586914 C-1 1 -1 1 0 0 Z " fill="#B3F4FA" transform="translate(770,272)"/>
<path d="M0 0 C1.45792884 -0.05399736 2.91642712 -0.09279177 4.375 -0.125 C5.18710937 -0.14820313 5.99921875 -0.17140625 6.8359375 -0.1953125 C9 0 9 0 11 2 C12.25714286 7.48571429 12.25714286 7.48571429 11 10 C10.34 10 9.68 10 9 10 C9 8.02 9 6.04 9 4 C7.68 4 6.36 4 5 4 C5 3.34 5 2.68 5 2 C3.35 2 1.7 2 0 2 C0 1.34 0 0.68 0 0 Z " fill="#82CED4" transform="translate(747,159)"/>
<path d="M0 0 C7.26 0 14.52 0 22 0 C21.67 0.66 21.34 1.32 21 2 C16.23422351 3.26749375 11.92356988 2.8111141 7.125 2.0625 C6.09246094 1.91264648 6.09246094 1.91264648 5.0390625 1.75976562 C3.35817003 1.51463547 1.67889513 1.25845587 0 1 C0 0.67 0 0.34 0 0 Z " fill="#92F1FB" transform="translate(140,741)"/>
<path d="M0 0 C0.33 0.66 0.66 1.32 1 2 C1.66 2 2.32 2 3 2 C3 7.61 3 13.22 3 19 C2.34 19 1.68 19 1 19 C0.67 12.73 0.34 6.46 0 0 Z " fill="#86DCEC" transform="translate(398,182)"/>
<path d="M0 0 C0.99 0 1.98 0 3 0 C4.97094808 4.92737019 5.1799928 8.78020872 5 14 C4.01 14.495 4.01 14.495 3 15 C2.67 13.02 2.34 11.04 2 9 C1.67 9 1.34 9 1 9 C0.67 6.03 0.34 3.06 0 0 Z " fill="#97DEE3" transform="translate(477,682)"/>
<path d="M0 0 C3 2 3 2 4 5 C4.06937062 7.22818441 4.08457084 9.45834524 4.0625 11.6875 C4.05347656 12.86699219 4.04445312 14.04648437 4.03515625 15.26171875 C4.02355469 16.16535156 4.01195312 17.06898438 4 18 C3.34 18 2.68 18 2 18 C2 13.38 2 8.76 2 4 C1.34 4 0.68 4 0 4 C0 2.68 0 1.36 0 0 Z " fill="#169DB4" transform="translate(155,311)"/>
<path d="M0 0 C0.66 0.33 1.32 0.66 2 1 C2 6.61 2 12.22 2 18 C1.34 18 0.68 18 0 18 C-0.73030908 11.78675502 -1.23180249 6.15901243 0 0 Z " fill="#63E2F5" transform="translate(159,290)"/>
<path d="M0 0 C0.33 0 0.66 0 1 0 C0.67 4.95 0.34 9.9 0 15 C-0.99 15 -1.98 15 -3 15 C-2.88623383 12.87436897 -2.75864369 10.7494739 -2.625 8.625 C-2.55539063 7.44164062 -2.48578125 6.25828125 -2.4140625 5.0390625 C-2 2 -2 2 0 0 Z " fill="#99E8EF" transform="translate(172,187)"/>
<path d="M0 0 C2.84614024 2.84614024 2.45579076 5.80369142 2.625 9.625 C2.68300781 10.68460937 2.68300781 10.68460937 2.7421875 11.765625 C2.83647724 13.50998524 2.91932891 15.25495691 3 17 C2.67 16.34 2.34 15.68 2 15 C1.34 15 0.68 15 0 15 C-0.19390729 12.68802845 -0.37996367 10.3753971 -0.5625 8.0625 C-0.71912109 6.13083984 -0.71912109 6.13083984 -0.87890625 4.16015625 C-0.91886719 3.11730469 -0.95882812 2.07445312 -1 1 C-0.67 0.67 -0.34 0.34 0 0 Z " fill="#B2E8ED" transform="translate(637,266)"/>
<path d="M0 0 C0.99 0 1.98 0 3 0 C2.67 4.95 2.34 9.9 2 15 C1.34 15 0.68 15 0 15 C0 10.05 0 5.1 0 0 Z " fill="#B9F5FB" transform="translate(769,605)"/>
<path d="M0 0 C0 0.66 0 1.32 0 2 C-11.385 1.505 -11.385 1.505 -23 1 C-23 0.67 -23 0.34 -23 0 C-20.47958689 -0.19667089 -17.95911728 -0.38254317 -15.4375 -0.5625 C-14.73302734 -0.61857422 -14.02855469 -0.67464844 -13.30273438 -0.73242188 C-8.68561569 -1.05157754 -4.5591248 -0.80878035 0 0 Z " fill="#5AD9E8" transform="translate(669,379)"/>
<path d="M0 0 C0.33 0.99 0.66 1.98 1 3 C-1.64738916 4.4606285 -2.89448334 5 -6 5 C-6 7.31 -6 9.62 -6 12 C-6.99 12 -7.98 12 -9 12 C-8.51171875 5.9453125 -8.51171875 5.9453125 -8 4 C-4.77208445 1.8480563 -3.71599191 1.79913557 0 2 C0 1.34 0 0.68 0 0 Z " fill="#B5F0F4" transform="translate(497,161)"/>
<path d="M0 0 C2.64 0 5.28 0 8 0 C8 0.66 8 1.32 8 2 C10.97 2 13.94 2 17 2 C17 2.66 17 3.32 17 4 C13.37 4 9.74 4 6 4 C5.67 3.01 5.34 2.02 5 1 C3.35 1 1.7 1 0 1 C0 0.67 0 0.34 0 0 Z " fill="#0094AF" transform="translate(253,145)"/>
<path d="M0 0 C1.93681161 -0.08107583 3.8745934 -0.13922475 5.8125 -0.1875 C6.89144531 -0.22230469 7.97039063 -0.25710938 9.08203125 -0.29296875 C12 0 12 0 13.88671875 1.51171875 C14.25410156 2.00285156 14.62148438 2.49398437 15 3 C9.5610835 3.21755666 5.12919186 3.10428384 0 1 C0 0.67 0 0.34 0 0 Z " fill="#A5E2E6" transform="translate(529,513)"/>
<path d="M0 0 C2.64 0 5.28 0 8 0 C7.67 3.63 7.34 7.26 7 11 C6.34 11 5.68 11 5 11 C5 8.03 5 5.06 5 2 C3.35 2 1.7 2 0 2 C0 1.34 0 0.68 0 0 Z " fill="#87EAF6" transform="translate(755,388)"/>
<path d="M0 0 C0.66 0.33 1.32 0.66 2 1 C2 4.63 2 8.26 2 12 C1.01 12.495 1.01 12.495 0 13 C-2.625 12.0625 -2.625 12.0625 -5 11 C-5 10.67 -5 10.34 -5 10 C-3.35 10 -1.7 10 0 10 C0 6.7 0 3.4 0 0 Z " fill="#DDFCFD" transform="translate(766,327)"/>
<path d="M0 0 C0.66 0 1.32 0 2 0 C2.33 4.29 2.66 8.58 3 13 C2.01 13 1.02 13 0 13 C0 8.71 0 4.42 0 0 Z " fill="#B7F6FC" transform="translate(769,505)"/>
<path d="M0 0 C0.66 0 1.32 0 2 0 C2.04241723 2.33294775 2.04092937 4.66702567 2 7 C1.67 7.33 1.34 7.66 1 8 C0.63239269 10.32817964 0.29758419 12.6618385 0 15 C-0.33 15 -0.66 15 -1 15 C-2.59138085 10.82262526 -3.21278058 7.46839215 -3 3 C-2.67 4.32 -2.34 5.64 -2 7 C-1.34 7 -0.68 7 0 7 C0 4.69 0 2.38 0 0 Z " fill="#03A7C0" transform="translate(155,343)"/>
<path d="M0 0 C0.66 0.66 1.32 1.32 2 2 C1.9765625 5.2578125 1.9765625 5.2578125 1.625 9.125 C1.51414062 10.40632813 1.40328125 11.68765625 1.2890625 13.0078125 C1.19367188 13.99523437 1.09828125 14.98265625 1 16 C0.34 16 -0.32 16 -1 16 C-1.02685095 13.52076199 -1.04676547 11.0418116 -1.0625 8.5625 C-1.07506836 7.50192383 -1.07506836 7.50192383 -1.08789062 6.41992188 C-1.09653588 4.61306441 -1.05220011 2.80612397 -1 1 C-0.67 0.67 -0.34 0.34 0 0 Z " fill="#D5FAFC" transform="translate(265,336)"/>
<path d="M0 0 C5.4389165 -0.21755666 9.87080814 -0.10428384 15 2 C14.67 2.66 14.34 3.32 14 4 C9.02906176 3.58846263 4.55491614 3.20399168 0 1 C0 0.67 0 0.34 0 0 Z " fill="#8DE1EB" transform="translate(281,263)"/>
<path d="M0 0 C0.33 0 0.66 0 1 0 C1.33 4.29 1.66 8.58 2 13 C1.01 13 0.02 13 -1 13 C-1.02686553 11.02090602 -1.04633375 9.04171029 -1.0625 7.0625 C-1.07410156 5.96035156 -1.08570313 4.85820312 -1.09765625 3.72265625 C-1 1 -1 1 0 0 Z " fill="#ABF6F8" transform="translate(763,400)"/>
<path d="M0 0 C3.63 0.33 7.26 0.66 11 1 C11 1.66 11 2.32 11 3 C7.04 3 3.08 3 -1 3 C-0.67 2.01 -0.34 1.02 0 0 Z " fill="#ABF2FA" transform="translate(508,510)"/>
<path d="M0 0 C1.32 0 2.64 0 4 0 C4 0.66 4 1.32 4 2 C-2.435 4.97 -2.435 4.97 -9 8 C-9 7.01 -9 6.02 -9 5 C-8.43410156 4.72285156 -7.86820313 4.44570313 -7.28515625 4.16015625 C-6.55167969 3.79792969 -5.81820312 3.43570313 -5.0625 3.0625 C-3.96615234 2.52302734 -3.96615234 2.52302734 -2.84765625 1.97265625 C-1.03750973 1.13628173 -1.03750973 1.13628173 0 0 Z " fill="#B3F4FA" transform="translate(739,728)"/>
<path d="M0 0 C0.66 0 1.32 0 2 0 C2.19627391 1.58226965 2.38165538 3.16589271 2.5625 4.75 C2.66691406 5.63171875 2.77132813 6.5134375 2.87890625 7.421875 C2.99456676 9.88432451 2.73638695 11.66538064 2 14 C1.34 14 0.68 14 0 14 C0 9.38 0 4.76 0 0 Z " fill="#B7F4FB" transform="translate(419,386)"/>
<path d="M0 0 C0.66 0 1.32 0 2 0 C1.85795259 1.58367747 1.71119847 3.16693318 1.5625 4.75 C1.48128906 5.63171875 1.40007812 6.5134375 1.31640625 7.421875 C1.03761535 9.69350452 0.61209423 11.79851823 0 14 C-0.66 14 -1.32 14 -2 14 C-2.21192221 8.80790596 -1.5912689 4.873261 0 0 Z " fill="#ADEDF3" transform="translate(268,296)"/>
<path d="M0 0 C2 2 2 2 2.1953125 4.3828125 C2.17210937 5.28773438 2.14890625 6.19265625 2.125 7.125 C2.10695312 8.03507813 2.08890625 8.94515625 2.0703125 9.8828125 C2.03550781 10.93082031 2.03550781 10.93082031 2 12 C1.01 12 0.02 12 -1 12 C-1.08159574 7.83861737 -0.98248524 4.0527516 0 0 Z " fill="#67E6F0" transform="translate(175,152)"/>
<path d="M0 0 C0.66 0 1.32 0 2 0 C4.3992233 4.64849515 4.19957409 8.91086074 4 14 C3.34 14 2.68 14 2 14 C1.93941406 13.32453125 1.87882813 12.6490625 1.81640625 11.953125 C1.73261719 11.06109375 1.64882813 10.1690625 1.5625 9.25 C1.48128906 8.36828125 1.40007813 7.4865625 1.31640625 6.578125 C1.03761535 4.30649548 0.61209423 2.20148177 0 0 Z " fill="#85EBF5" transform="translate(762,184)"/>
<path d="M0 0 C10.395 0.99 10.395 0.99 21 2 C21 2.33 21 2.66 21 3 C14.73 3 8.46 3 2 3 C2 2.34 2 1.68 2 1 C1.34 0.67 0.68 0.34 0 0 Z " fill="#97EBF5" transform="translate(364,743)"/>
<path d="M0 0 C0.66 0 1.32 0 2 0 C2 4.29 2 8.58 2 13 C1.34 13 0.68 13 0 13 C-0.19397476 11.02145742 -0.38001321 9.0421352 -0.5625 7.0625 C-0.66691406 5.96035156 -0.77132813 4.85820313 -0.87890625 3.72265625 C-0.91886719 2.82417969 -0.95882813 1.92570313 -1 1 C-0.67 0.67 -0.34 0.34 0 0 Z " fill="#71D4DD" transform="translate(482,697)"/>
<path d="M0 0 C0.33 0 0.66 0 1 0 C1 2.64 1 5.28 1 8 C1.66 8 2.32 8 3 8 C2.4140625 14.15234375 2.4140625 14.15234375 2 16 C1.34 16.33 0.68 16.66 0 17 C0 11.39 0 5.78 0 0 Z " fill="#B3F8FA" transform="translate(270,579)"/>
<path d="M0 0 C0.66 0 1.32 0 2 0 C2.33 3.96 2.66 7.92 3 12 C2.01 12 1.02 12 0 12 C0 8.04 0 4.08 0 0 Z " fill="#BDF6FB" transform="translate(430,499)"/>
<path d="M0 0 C1.32 0 2.64 0 4 0 C4 3.63 4 7.26 4 11 C3.67 11 3.34 11 3 11 C3 9.02 3 7.04 3 5 C2.01 5 1.02 5 0 5 C0 3.35 0 1.7 0 0 Z " fill="#005A74" transform="translate(769,599)"/>
<path d="M0 0 C0.66 0 1.32 0 2 0 C2.33 3.63 2.66 7.26 3 11 C2.01 11 1.02 11 0 11 C0 7.37 0 3.74 0 0 Z " fill="#C5F6FD" transform="translate(437,579)"/>
<path d="M0 0 C0.66 0 1.32 0 2 0 C3.75747614 4.50353262 4.19294408 8.17639811 4 13 C3.34 13 2.68 13 2 13 C1.34 8.71 0.68 4.42 0 0 Z " fill="#C5F8FA" transform="translate(640,290)"/>
<path d="M0 0 C4.54805635 -0.17835515 7.8794254 0.00214565 12 2 C11.34 2.66 10.68 3.32 10 4 C8.125 3.828125 8.125 3.828125 6 3.25 C5.29875 3.06953125 4.5975 2.8890625 3.875 2.703125 C2 2 2 2 0 0 Z " fill="#93E5ED" transform="translate(488,456)"/>
<path d="M0 0 C0.66 0 1.32 0 2 0 C3.28571429 7.42857143 3.28571429 7.42857143 2 11 C1.34 11 0.68 11 0 11 C0 7.37 0 3.74 0 0 Z " fill="#B0F4FA" transform="translate(540,348)"/>
<path d="M0 0 C1.6254308 0.14095064 3.25034051 0.28792087 4.875 0.4375 C5.77992188 0.51871094 6.68484375 0.59992188 7.6171875 0.68359375 C10 1 10 1 12 2 C12 2.66 12 3.32 12 4 C6.06 3.01 6.06 3.01 0 2 C0 1.34 0 0.68 0 0 Z " fill="#D4F8FA" transform="translate(709,148)"/>
<path d="M0 0 C2.475 0.495 2.475 0.495 5 1 C5 3.31 5 5.62 5 8 C4.34 8 3.68 8 3 8 C3 6.02 3 4.04 3 2 C2.01 2.33 1.02 2.66 0 3 C0 2.01 0 1.02 0 0 Z " fill="#007881" transform="translate(575,518)"/>
<path d="M0 0 C2.97 0 5.94 0 9 0 C8.01 0.495 8.01 0.495 7 1 C7 1.66 7 2.32 7 3 C5.02 3 3.04 3 1 3 C0.67 2.01 0.34 1.02 0 0 Z " fill="#0FA8C6" transform="translate(544,515)"/>
<path d="M0 0 C0.66 0.33 1.32 0.66 2 1 C1.67 3.97 1.34 6.94 1 10 C0.34 10 -0.32 10 -1 10 C-1.02689216 8.52093108 -1.04634621 7.04172517 -1.0625 5.5625 C-1.07410156 4.73878906 -1.08570313 3.91507813 -1.09765625 3.06640625 C-1 1 -1 1 0 0 Z " fill="#014550" transform="translate(477,510)"/>
<path d="M0 0 C2.97 0.33 5.94 0.66 9 1 C8.67 1.66 8.34 2.32 8 3 C5.03 3 2.06 3 -1 3 C-0.67 2.01 -0.34 1.02 0 0 Z " fill="#94EEF9" transform="translate(680,382)"/>
<path d="M0 0 C1.32 0 2.64 0 4 0 C4 1.32 4 2.64 4 4 C1.69 4 -0.62 4 -3 4 C-2.34 3.67 -1.68 3.34 -1 3 C-0.67 2.01 -0.34 1.02 0 0 Z " fill="#029EB4" transform="translate(333,275)"/>
<path d="M0 0 C0.99 0.495 0.99 0.495 2 1 C2.59355614 3.64860427 2.74209269 6.29197322 3 9 C2.01 8.67 1.02 8.34 0 8 C0 5.36 0 2.72 0 0 Z " fill="#99EBEF" transform="translate(405,249)"/>
<path d="M0 0 C0.66 0 1.32 0 2 0 C2 3.3 2 6.6 2 10 C1.01 9.67 0.02 9.34 -1 9 C-0.67 6.03 -0.34 3.06 0 0 Z " fill="#D8FCFE" transform="translate(173,166)"/>
<path d="M0 0 C0 0.66 0 1.32 0 2 C-3.82320557 3.42258812 -6.91281305 4.24042276 -11 4 C-11 3.34 -11 2.68 -11 2 C-3.375 0 -3.375 0 0 0 Z " fill="#D7F9FB" transform="translate(546,148)"/>
<path d="M0 0 C-0.33 1.32 -0.66 2.64 -1 4 C-3.31 4 -5.62 4 -8 4 C-8 3.34 -8 2.68 -8 2 C-4.77208445 -0.1519437 -3.71599191 -0.20086443 0 0 Z " fill="#70DEEE" transform="translate(557,145)"/>
<path d="M0 0 C0 0.33 0 0.66 0 1 C-2.97851562 1.29296875 -2.97851562 1.29296875 -5.95703125 1.5859375 C-8.29988142 1.92665391 -8.29988142 1.92665391 -11 4 C-12.32 3.34 -13.64 2.68 -15 2 C-10.13948404 -0.59227518 -5.34728867 -0.18689553 0 0 Z " fill="#007C94" transform="translate(596,632)"/>
<path d="M0 0 C0.33 0 0.66 0 1 0 C1 3.3 1 6.6 1 10 C-0.32 10 -1.64 10 -3 10 C-2.67 8.68 -2.34 7.36 -2 6 C-1.34 6 -0.68 6 0 6 C0 4.02 0 2.04 0 0 Z " fill="#007B91" transform="translate(429,471)"/>
<path d="M0 0 C0.66 0 1.32 0 2 0 C1.67 2.97 1.34 5.94 1 9 C0.34 9 -0.32 9 -1 9 C-1.09765625 2.84765625 -1.09765625 2.84765625 -1 1 C-0.67 0.67 -0.34 0.34 0 0 Z " fill="#A4ECF6" transform="translate(770,303)"/>
<path d="M0 0 C2.97 0.33 5.94 0.66 9 1 C9 1.99 9 2.98 9 4 C6.69 3.67 4.38 3.34 2 3 C2 2.34 2 1.68 2 1 C1.34 0.67 0.68 0.34 0 0 Z " fill="#72D6E2" transform="translate(323,274)"/>
<path d="M0 0 C0.33 0 0.66 0 1 0 C1.19392201 5.52677733 0.7479503 9.75614911 -1 15 C-1.33 15 -1.66 15 -2 15 C-2.19392201 9.47322267 -1.7479503 5.24385089 0 0 Z " fill="#017385" transform="translate(449,697)"/>
<path d="M0 0 C0.66 0 1.32 0 2 0 C2 0.99 2 1.98 2 3 C3.32 3.33 4.64 3.66 6 4 C3.69 4.66 1.38 5.32 -1 6 C-0.67 4.02 -0.34 2.04 0 0 Z " fill="#05ADCC" transform="translate(487,451)"/>
<path d="M0 0 C0.66 0 1.32 0 2 0 C2 2.97 2 5.94 2 9 C1.01 8.67 0.02 8.34 -1 8 C-0.67 5.36 -0.34 2.72 0 0 Z " fill="#D9FAFD" transform="translate(166,229)"/>
<path d="M0 0 C0.33 0.99 0.66 1.98 1 3 C-1.90600261 4.25664978 -3.79604584 5 -7 5 C-7 4.34 -7 3.68 -7 3 C-4.69 2.01 -2.38 1.02 0 0 Z " fill="#8DE9F4" transform="translate(520,155)"/>
<path d="M0 0 C0.99 0.33 1.98 0.66 3 1 C3.33 3.31 3.66 5.62 4 8 C3.01 7.67 2.02 7.34 1 7 C0.67 4.69 0.34 2.38 0 0 Z " fill="#8BE1E6" transform="translate(387,149)"/>
<path d="M0 0 C0.66 0.33 1.32 0.66 2 1 C2 3.31 2 5.62 2 8 C1.01 8.33 0.02 8.66 -1 9 C-0.67 6.03 -0.34 3.06 0 0 Z " fill="#88E5EE" transform="translate(152,352)"/>
<path d="M0 0 C4.455 0.99 4.455 0.99 9 2 C8.67 2.99 8.34 3.98 8 5 C5.36 4.01 2.72 3.02 0 2 C0 1.34 0 0.68 0 0 Z " fill="#B0F6FB" transform="translate(312,270)"/>
<path d="M0 0 C2.76276177 0.52268466 5.3260876 1.10869587 8 2 C8 2.66 8 3.32 8 4 C6.35 4 4.7 4 3 4 C3 3.34 3 2.68 3 2 C2.01 2 1.02 2 0 2 C0 1.34 0 0.68 0 0 Z " fill="#87D5DE" transform="translate(297,266)"/>
<path d="M0 0 C0.99 0 1.98 0 3 0 C4.125 5.75 4.125 5.75 3 8 C2.34 8 1.68 8 1 8 C0.67 5.36 0.34 2.72 0 0 Z " fill="#84EBF5" transform="translate(755,161)"/>
<path d="M0 0 C2.625 0.9375 2.625 0.9375 5 2 C5 2.66 5 3.32 5 4 C2.69 3.67 0.38 3.34 -2 3 C-2 2.34 -2 1.68 -2 1 C-1.34 0.67 -0.68 0.34 0 0 Z " fill="#008AB3" transform="translate(650,637)"/>
<path d="M0 0 C0.66 0 1.32 0 2 0 C2 2.97 2 5.94 2 9 C0.4375 7.3125 0.4375 7.3125 -1 5 C-0.6875 2.25 -0.6875 2.25 0 0 Z " fill="#01A1BE" transform="translate(536,273)"/>
<path d="M0 0 C4 1 4 1 4 1 Z " fill="#000000" transform="translate(644,341)"/>
<path d="M0 0 C2 1 2 1 2 1 Z " fill="#000000" transform="translate(765,719)"/>
<path d="M0 0 C2 1 2 1 2 1 Z " fill="#000000" transform="translate(579,517)"/>
<path d="M0 0 C2 1 2 1 2 1 Z " fill="#000000" transform="translate(388,144)"/>
<path d="" fill="#000000" transform="translate(0,0)"/>
<path d="" fill="#000000" transform="translate(0,0)"/>
<path d="" fill="#000000" transform="translate(0,0)"/>
<path d="" fill="#000000" transform="translate(0,0)"/>
<path d="" fill="#000000" transform="translate(0,0)"/>
<path d="" fill="#000000" transform="translate(0,0)"/>
<path d="" fill="#000000" transform="translate(0,0)"/>
<path d="" fill="#000000" transform="translate(0,0)"/>
<path d="" fill="#000000" transform="translate(0,0)"/>
<path d="" fill="#000000" transform="translate(0,0)"/>
<path d="" fill="#000000" transform="translate(0,0)"/>
<path d="" fill="#000000" transform="translate(0,0)"/>
<path d="" fill="#000000" transform="translate(0,0)"/>
<path d="" fill="#000000" transform="translate(0,0)"/>
<path d="" fill="#000000" transform="translate(0,0)"/>
<path d="" fill="#000000" transform="translate(0,0)"/>
<path d="" fill="#000000" transform="translate(0,0)"/>
<path d="" fill="#000000" transform="translate(0,0)"/>
<path d="" fill="#000000" transform="translate(0,0)"/>
</svg>
